<svg xmlns="http://www.w3.org/2000/svg" viewBox="0 0 64 64" fill="none">
  <defs>
    <linearGradient id="g" x1="0" y1="0" x2="64" y2="64" gradientUnits="userSpaceOnUse">
      <stop offset="0" stop-color="#6366f1"/>
      <stop offset="1" stop-color="#8b5cf6"/>
    </linearGradient>
  </defs>
  <path fill="url(#g)" d="M12 6h40a6 6 0 0 1 6 6v30a6 6 0 0 1-6 6H30l-12 10V48h-6a6 6 0 0 1-6-6V12a6 6 0 0 1 6-6z"/>
  <path fill="#fff" d="M32 14c-5.5 0-10 4-10 9a2.5 2.5 0 0 0 5 0c0-2.2 2.2-4 5-4s5 1.8 5 4c0 1.5-.8 2.4-2.8 3.6-2.4 1.5-4.7 3.4-4.7 6.9v1a2.5 2.5 0 0 0 5 0v-1c0-1 .5-1.6 2.3-2.7C39.2 30.2 42 28.1 42 23c0-5-4.5-9-10-9z"/>
  <circle fill="#fff" cx="32" cy="41" r="2.8"/>
</svg>
